<svg width="188" height="24" viewBox="0 0 188 24" fill="none" xmlns="http://www.w3.org/2000/svg">
<g id="Logo">
<g id="noun_Running_1473810">
<g id="Group">
<path id="Path" d="M164.979 20.6182C164.979 20.2909 164.759 20.0727 164.429 20.0727H154.849C154.519 20.0727 154.299 20.2909 154.299 20.6182C154.299 20.9455 154.519 21.1636 154.849 21.1636H164.429C164.759 21.1636 164.979 20.8909 164.979 20.6182Z" fill="white"/>
<path id="Path_2" d="M157.051 22.8H155.95C155.62 22.8 155.4 23.0182 155.4 23.3454C155.4 23.6727 155.62 23.8909 155.95 23.8909H157.051C157.382 23.8909 157.602 23.6727 157.602 23.3454C157.602 23.0182 157.382 22.8 157.051 22.8Z" fill="white"/>
<path id="Path_3" d="M159.639 17.8909C159.639 17.5636 159.419 17.3455 159.088 17.3455H153.748C153.418 17.3455 153.198 17.5636 153.198 17.8909C153.198 18.2182 153.418 18.4364 153.748 18.4364H159.088C159.419 18.4364 159.639 18.1636 159.639 17.8909Z" fill="white"/>
<path id="Shape" fill-rule="evenodd" clip-rule="evenodd" d="M187.002 18.8182C186.837 18.4909 186.506 18.2182 186.176 18.0545L181.992 16.4727L180.285 15.8727C179.789 15.6545 179.349 15.3273 179.074 14.8909L177.642 12.5455C177.918 12.4909 178.083 12.2727 178.083 12C178.083 11.6727 177.863 11.4545 177.532 11.4545H176.982L176.321 10.3636C176.596 10.3091 176.761 10.0909 176.761 9.81818C176.761 9.49091 176.541 9.27273 176.211 9.27273H175.66L175.11 8.4C175.33 8.34545 175.495 8.12727 175.495 7.90909C175.495 7.58182 175.275 7.36364 174.945 7.36364H174.449L173.733 6.21818C173.733 6.21818 173.733 6.16364 173.678 6.16364C173.018 5.4 172.137 5.01818 171.201 5.12727C170.375 5.23636 169.714 5.72727 169.439 6.32727C169.384 6.49091 169.384 6.65454 169.494 6.81818L174.064 14.5636C174.119 14.6727 174.229 14.7818 174.339 14.7818L179.955 16.9091H180.01L181.661 17.5091L185.791 19.0909C185.901 19.1455 186.011 19.2 186.066 19.3636C186.286 19.8 186.286 20.2364 186.011 20.6727H177.037C176.486 20.6727 175.936 20.5091 175.495 20.1818L160.135 8.89091C160.135 8.89091 160.355 8.78182 160.63 8.4C160.905 8.01818 161.015 7.52727 161.015 7.03636L160.52 2.45454L161.181 1.41818C161.346 1.2 161.676 1.14545 161.896 1.30909C161.908 1.3211 161.923 1.33517 161.941 1.35195L161.941 1.35196C162.164 1.56371 162.839 2.20642 164.319 4.58182C165.145 5.78182 166.466 6.65454 167.952 6.87273C168.228 6.92727 168.558 6.70909 168.613 6.43636C168.668 6.16363 168.448 5.83636 168.173 5.78182C167.017 5.56364 165.915 4.90909 165.255 3.92727C163.328 0.981817 162.777 0.545453 162.557 0.381817C161.841 -0.109092 160.85 0.0545443 160.3 0.763635L156.941 6.05454C156.721 6.38182 156.666 6.76364 156.721 7.14545C156.391 7.25454 156.06 7.41818 155.895 7.74545L155.014 9.10909C154.519 9.81818 154.739 10.8 155.455 11.2909C155.883 11.6206 156.721 12.1537 157.934 12.9252L157.935 12.9258C158.127 13.0476 158.328 13.1753 158.538 13.3091C158.648 13.3636 158.758 13.4182 158.813 13.4182C158.978 13.4182 159.144 13.3091 159.254 13.1455C159.419 12.8727 159.364 12.5455 159.088 12.3818C158.616 12.0698 158.188 11.7909 157.808 11.5433L157.808 11.5432C156.993 11.0115 156.398 10.6241 156.06 10.3636C155.84 10.2 155.785 9.92727 155.95 9.65454L156.776 8.4C156.941 8.18182 157.272 8.12727 157.492 8.29091L174.779 21.0545C175.44 21.5455 176.211 21.7636 176.982 21.7636H184.579C183.423 22.3091 181.827 22.8 180.45 22.8H178.523H176.927C175.991 22.8 175.055 22.5273 174.284 22.0364C171.091 20.0182 165.145 16.2545 160.795 13.4727C160.52 13.3091 160.19 13.3636 160.024 13.6364C159.859 13.9091 159.914 14.2364 160.19 14.4C162.98 16.1951 166.438 18.392 169.402 20.2751C170.942 21.2529 172.348 22.1461 173.458 22.8545H159.254C158.923 22.8545 158.703 23.0727 158.703 23.4C158.703 23.7273 158.923 23.9455 159.254 23.9455H176.927H178.523H180.395C182.652 23.9455 185.901 22.7455 186.727 21.6C187.442 20.6182 187.497 19.6909 187.002 18.8182ZM174.834 13.9091L170.54 6.65454C170.705 6.49091 170.981 6.32727 171.311 6.27273C171.641 6.21818 172.247 6.27273 172.797 6.87273L173.128 7.41818H172.632C172.302 7.41818 172.082 7.63636 172.082 7.96364C172.082 8.29091 172.302 8.50909 172.632 8.50909H173.788L174.339 9.38182H173.899C173.568 9.38182 173.348 9.6 173.348 9.92727C173.348 10.2545 173.568 10.4727 173.899 10.4727H175L175.66 11.5091H175.22C174.89 11.5091 174.669 11.7273 174.669 12.0545C174.669 12.3818 174.89 12.6 175.22 12.6H176.321L177.863 15L174.834 13.9091ZM159.584 3.98182L157.877 6.65454C157.767 6.87273 157.822 7.14545 158.153 7.41818C158.648 7.8 158.923 7.96364 158.923 7.96364C159.382 8.31671 159.604 7.97015 159.722 7.78658C159.732 7.77163 159.741 7.75777 159.749 7.74545C159.859 7.58182 159.914 7.36364 159.914 7.14545L159.584 3.98182Z" fill="white"/>
</g>
</g>
<path id="COGNYSHOES" d="M10.2803 17.7578H13.7607C13.7035 18.832 13.4098 19.7809 12.8799 20.6045C12.3571 21.4209 11.6302 22.0618 10.6992 22.5273C9.76823 22.9857 8.66178 23.2148 7.37988 23.2148C6.35579 23.2148 5.43913 23.0394 4.62988 22.6885C3.82064 22.3376 3.13314 21.8363 2.56738 21.1846C2.00879 20.5257 1.5791 19.7344 1.27832 18.8105C0.984701 17.8796 0.837891 16.8304 0.837891 15.6631V14.707C0.837891 13.5397 0.991862 12.4906 1.2998 11.5596C1.60775 10.6286 2.04818 9.83366 2.62109 9.1748C3.19401 8.51595 3.88151 8.01107 4.68359 7.66016C5.48568 7.30924 6.38086 7.13379 7.36914 7.13379C8.70117 7.13379 9.82552 7.3737 10.7422 7.85352C11.6589 8.33333 12.3678 8.99219 12.8691 9.83008C13.3776 10.668 13.682 11.624 13.7822 12.6982H10.291C10.2624 12.0895 10.1478 11.5775 9.94727 11.1621C9.74674 10.7396 9.4388 10.4209 9.02344 10.2061C8.60807 9.99121 8.05664 9.88379 7.36914 9.88379C6.86784 9.88379 6.42741 9.97689 6.04785 10.1631C5.67546 10.3493 5.36393 10.6393 5.11328 11.0332C4.86979 11.4271 4.68717 11.9284 4.56543 12.5371C4.44368 13.1387 4.38281 13.8548 4.38281 14.6855V15.6631C4.38281 16.4867 4.43652 17.1992 4.54395 17.8008C4.65137 18.4023 4.82324 18.9001 5.05957 19.2939C5.30306 19.6878 5.61458 19.9814 5.99414 20.1748C6.3737 20.3682 6.83561 20.4648 7.37988 20.4648C8.00293 20.4648 8.52214 20.3682 8.9375 20.1748C9.35286 19.9743 9.67155 19.6735 9.89355 19.2725C10.1156 18.8714 10.2445 18.3665 10.2803 17.7578ZM28.7461 14.8359V15.5342C28.7461 16.723 28.5814 17.79 28.252 18.7354C27.9297 19.6807 27.4678 20.4863 26.8662 21.1523C26.2718 21.8184 25.5628 22.3304 24.7393 22.6885C23.9229 23.0394 23.0169 23.2148 22.0215 23.2148C21.026 23.2148 20.1165 23.0394 19.293 22.6885C18.4694 22.3304 17.7533 21.8184 17.1445 21.1523C16.543 20.4863 16.0775 19.6807 15.748 18.7354C15.4186 17.79 15.2539 16.723 15.2539 15.5342V14.8359C15.2539 13.6471 15.4186 12.5801 15.748 11.6348C16.0775 10.6823 16.5394 9.87305 17.1338 9.20703C17.7354 8.54102 18.4479 8.03255 19.2715 7.68164C20.0951 7.32357 21.0046 7.14453 22 7.14453C22.9954 7.14453 23.9049 7.32357 24.7285 7.68164C25.5521 8.03255 26.2611 8.54102 26.8555 9.20703C27.457 9.87305 27.9225 10.6823 28.252 11.6348C28.5814 12.5801 28.7461 13.6471 28.7461 14.8359ZM25.2119 15.5342V14.8145C25.2119 14.0195 25.1403 13.3177 24.9971 12.709C24.8538 12.0931 24.6462 11.5775 24.374 11.1621C24.1019 10.7467 23.7653 10.4352 23.3643 10.2275C22.9632 10.0127 22.5085 9.90527 22 9.90527C21.4701 9.90527 21.0081 10.0127 20.6143 10.2275C20.2204 10.4352 19.8874 10.7467 19.6152 11.1621C19.3503 11.5775 19.1462 12.0931 19.0029 12.709C18.8669 13.3177 18.7988 14.0195 18.7988 14.8145V15.5342C18.7988 16.3219 18.8669 17.0238 19.0029 17.6396C19.1462 18.2484 19.3538 18.764 19.626 19.1865C19.8981 19.609 20.2311 19.9277 20.625 20.1426C21.026 20.3574 21.4915 20.4648 22.0215 20.4648C22.5299 20.4648 22.9811 20.3574 23.375 20.1426C23.776 19.9277 24.1126 19.609 24.3848 19.1865C24.6569 18.764 24.861 18.2484 24.9971 17.6396C25.1403 17.0238 25.2119 16.3219 25.2119 15.5342ZM43.4951 14.7393V21.0449C43.2373 21.3385 42.8434 21.6536 42.3135 21.9902C41.7907 22.3268 41.1211 22.6169 40.3047 22.8604C39.4883 23.0967 38.5143 23.2148 37.3828 23.2148C36.3587 23.2148 35.4277 23.0501 34.5898 22.7207C33.752 22.3841 33.0322 21.8936 32.4307 21.249C31.8291 20.5973 31.3636 19.8024 31.0342 18.8643C30.7119 17.9261 30.5508 16.8519 30.5508 15.6416V14.7178C30.5508 13.5075 30.7119 12.4333 31.0342 11.4951C31.3564 10.557 31.8112 9.76562 32.3984 9.12109C32.9857 8.4694 33.6839 7.97526 34.4932 7.63867C35.3024 7.30208 36.1976 7.13379 37.1787 7.13379C38.5752 7.13379 39.7174 7.35938 40.6055 7.81055C41.4935 8.25456 42.1667 8.87044 42.625 9.6582C43.0905 10.446 43.377 11.3519 43.4844 12.376H40.1113C40.0397 11.8532 39.8965 11.402 39.6816 11.0225C39.474 10.6429 39.1768 10.3529 38.79 10.1523C38.4033 9.94466 37.902 9.84082 37.2861 9.84082C36.792 9.84082 36.3444 9.94466 35.9434 10.1523C35.5495 10.3529 35.2165 10.6572 34.9443 11.0654C34.6722 11.4736 34.4645 11.9821 34.3213 12.5908C34.1781 13.1924 34.1064 13.8942 34.1064 14.6963V15.6416C34.1064 16.4437 34.1781 17.1491 34.3213 17.7578C34.4717 18.3665 34.6901 18.875 34.9766 19.2832C35.263 19.6842 35.6247 19.9886 36.0615 20.1963C36.5055 20.404 37.0212 20.5078 37.6084 20.5078C38.0667 20.5078 38.4535 20.472 38.7686 20.4004C39.0837 20.3216 39.3415 20.2249 39.542 20.1104C39.7425 19.9886 39.8929 19.8776 39.9932 19.7773V17.1777H37.2109V14.7393H43.4951ZM58.792 7.35938V23H55.3008L49.3926 12.8916V23H45.8906V7.35938H49.3926L55.3115 17.4678V7.35938H58.792ZM63.583 7.35938L66.6445 14.3203L69.7275 7.35938H73.5088L68.4277 17.3496V23H64.8721V17.3496L59.7803 7.35938H63.583ZM82.7471 18.875C82.7471 18.61 82.7077 18.3737 82.6289 18.166C82.5501 17.9512 82.4069 17.7542 82.1992 17.5752C81.9915 17.3962 81.6979 17.2171 81.3184 17.0381C80.9388 16.8519 80.4411 16.6621 79.8252 16.4688C79.1234 16.2396 78.4538 15.9818 77.8164 15.6953C77.1862 15.4017 76.624 15.0615 76.1299 14.6748C75.6357 14.2881 75.2454 13.8369 74.959 13.3213C74.6797 12.8057 74.54 12.2041 74.54 11.5166C74.54 10.8506 74.6868 10.249 74.9805 9.71191C75.2741 9.1748 75.6859 8.71647 76.2158 8.33691C76.7458 7.9502 77.3688 7.65658 78.085 7.45605C78.8011 7.24837 79.5889 7.14453 80.4482 7.14453C81.5941 7.14453 82.6003 7.34863 83.4668 7.75684C84.3405 8.15788 85.0208 8.72363 85.5078 9.4541C85.9948 10.1774 86.2383 11.0189 86.2383 11.9785H82.7578C82.7578 11.556 82.6683 11.1836 82.4893 10.8613C82.3174 10.5319 82.0524 10.2741 81.6943 10.0879C81.3434 9.90169 80.903 9.80859 80.373 9.80859C79.8574 9.80859 79.4242 9.88737 79.0732 10.0449C78.7295 10.1953 78.4681 10.403 78.2891 10.668C78.1172 10.9329 78.0312 11.223 78.0312 11.5381C78.0312 11.7887 78.0957 12.0179 78.2246 12.2256C78.3607 12.4261 78.554 12.6159 78.8047 12.7949C79.0625 12.9668 79.3776 13.1315 79.75 13.2891C80.1224 13.4466 80.5485 13.597 81.0283 13.7402C81.8662 14.0052 82.6074 14.2988 83.252 14.6211C83.9036 14.9434 84.4515 15.3086 84.8955 15.7168C85.3395 16.125 85.6725 16.5869 85.8945 17.1025C86.1237 17.6182 86.2383 18.2018 86.2383 18.8535C86.2383 19.5482 86.1022 20.1641 85.8301 20.7012C85.5651 21.2383 85.1784 21.6966 84.6699 22.0762C84.1686 22.4486 83.5671 22.7314 82.8652 22.9248C82.1634 23.1182 81.3792 23.2148 80.5127 23.2148C79.7249 23.2148 78.9479 23.1146 78.1816 22.9141C77.4154 22.7064 76.7207 22.3913 76.0977 21.9688C75.4818 21.5462 74.9876 21.0091 74.6152 20.3574C74.25 19.6986 74.0674 18.918 74.0674 18.0156H77.5693C77.5693 18.4883 77.6374 18.8893 77.7734 19.2188C77.9095 19.541 78.1029 19.8024 78.3535 20.0029C78.6113 20.2035 78.9229 20.3467 79.2881 20.4326C79.6533 20.5186 80.0615 20.5615 80.5127 20.5615C81.0355 20.5615 81.458 20.4899 81.7803 20.3467C82.1097 20.1963 82.3532 19.9922 82.5107 19.7344C82.6683 19.4766 82.7471 19.1901 82.7471 18.875ZM98.7959 13.6543V16.3613H90.6963V13.6543H98.7959ZM91.8027 7.35938V23H88.3008V7.35938H91.8027ZM101.213 7.35938V23H97.7217V7.35938H101.213ZM116.854 14.8359V15.5342C116.854 16.723 116.689 17.79 116.359 18.7354C116.037 19.6807 115.575 20.4863 114.974 21.1523C114.379 21.8184 113.67 22.3304 112.847 22.6885C112.03 23.0394 111.124 23.2148 110.129 23.2148C109.133 23.2148 108.224 23.0394 107.4 22.6885C106.577 22.3304 105.861 21.8184 105.252 21.1523C104.65 20.4863 104.185 19.6807 103.855 18.7354C103.526 17.79 103.361 16.723 103.361 15.5342V14.8359C103.361 13.6471 103.526 12.5801 103.855 11.6348C104.185 10.6823 104.647 9.87305 105.241 9.20703C105.843 8.54102 106.555 8.03255 107.379 7.68164C108.202 7.32357 109.112 7.14453 110.107 7.14453C111.103 7.14453 112.012 7.32357 112.836 7.68164C113.66 8.03255 114.368 8.54102 114.963 9.20703C115.564 9.87305 116.03 10.6823 116.359 11.6348C116.689 12.5801 116.854 13.6471 116.854 14.8359ZM113.319 15.5342V14.8145C113.319 14.0195 113.248 13.3177 113.104 12.709C112.961 12.0931 112.754 11.5775 112.481 11.1621C112.209 10.7467 111.873 10.4352 111.472 10.2275C111.071 10.0127 110.616 9.90527 110.107 9.90527C109.577 9.90527 109.116 10.0127 108.722 10.2275C108.328 10.4352 107.995 10.7467 107.723 11.1621C107.458 11.5775 107.254 12.0931 107.11 12.709C106.974 13.3177 106.906 14.0195 106.906 14.8145V15.5342C106.906 16.3219 106.974 17.0238 107.11 17.6396C107.254 18.2484 107.461 18.764 107.733 19.1865C108.006 19.609 108.339 19.9277 108.732 20.1426C109.133 20.3574 109.599 20.4648 110.129 20.4648C110.637 20.4648 111.089 20.3574 111.482 20.1426C111.883 19.9277 112.22 19.609 112.492 19.1865C112.764 18.764 112.968 18.2484 113.104 17.6396C113.248 17.0238 113.319 16.3219 113.319 15.5342ZM129.637 20.293V23H121.312V20.293H129.637ZM122.504 7.35938V23H119.002V7.35938H122.504ZM128.562 13.6543V16.2754H121.312V13.6543H128.562ZM129.647 7.35938V10.0771H121.312V7.35938H129.647ZM139.466 18.875C139.466 18.61 139.426 18.3737 139.348 18.166C139.269 17.9512 139.126 17.7542 138.918 17.5752C138.71 17.3962 138.417 17.2171 138.037 17.0381C137.658 16.8519 137.16 16.6621 136.544 16.4688C135.842 16.2396 135.173 15.9818 134.535 15.6953C133.905 15.4017 133.343 15.0615 132.849 14.6748C132.354 14.2881 131.964 13.8369 131.678 13.3213C131.398 12.8057 131.259 12.2041 131.259 11.5166C131.259 10.8506 131.406 10.249 131.699 9.71191C131.993 9.1748 132.405 8.71647 132.935 8.33691C133.465 7.9502 134.088 7.65658 134.804 7.45605C135.52 7.24837 136.308 7.14453 137.167 7.14453C138.313 7.14453 139.319 7.34863 140.186 7.75684C141.059 8.15788 141.74 8.72363 142.227 9.4541C142.714 10.1774 142.957 11.0189 142.957 11.9785H139.477C139.477 11.556 139.387 11.1836 139.208 10.8613C139.036 10.5319 138.771 10.2741 138.413 10.0879C138.062 9.90169 137.622 9.80859 137.092 9.80859C136.576 9.80859 136.143 9.88737 135.792 10.0449C135.448 10.1953 135.187 10.403 135.008 10.668C134.836 10.9329 134.75 11.223 134.75 11.5381C134.75 11.7887 134.814 12.0179 134.943 12.2256C135.079 12.4261 135.273 12.6159 135.523 12.7949C135.781 12.9668 136.096 13.1315 136.469 13.2891C136.841 13.4466 137.267 13.597 137.747 13.7402C138.585 14.0052 139.326 14.2988 139.971 14.6211C140.622 14.9434 141.17 15.3086 141.614 15.7168C142.058 16.125 142.391 16.5869 142.613 17.1025C142.842 17.6182 142.957 18.2018 142.957 18.8535C142.957 19.5482 142.821 20.1641 142.549 20.7012C142.284 21.2383 141.897 21.6966 141.389 22.0762C140.887 22.4486 140.286 22.7314 139.584 22.9248C138.882 23.1182 138.098 23.2148 137.231 23.2148C136.444 23.2148 135.667 23.1146 134.9 22.9141C134.134 22.7064 133.439 22.3913 132.816 21.9688C132.201 21.5462 131.706 21.0091 131.334 20.3574C130.969 19.6986 130.786 18.918 130.786 18.0156H134.288C134.288 18.4883 134.356 18.8893 134.492 19.2188C134.628 19.541 134.822 19.8024 135.072 20.0029C135.33 20.2035 135.642 20.3467 136.007 20.4326C136.372 20.5186 136.78 20.5615 137.231 20.5615C137.754 20.5615 138.177 20.4899 138.499 20.3467C138.828 20.1963 139.072 19.9922 139.229 19.7344C139.387 19.4766 139.466 19.1901 139.466 18.875Z" fill="white"/>
</g>
</svg>
